<svg version="1.1" id="Layer_1" xmlns="http://www.w3.org/2000/svg" xmlns:xlink="http://www.w3.org/1999/xlink" x="0px" y="0px"
	 width="100%" viewBox="0 0 231 190" enable-background="new 0 0 231 190" xml:space="preserve">
<path fill="#FFFDFE" opacity="1.000000" stroke="none" 
	d="
M143.000000,191.000000 
	C95.333336,191.000000 48.166672,191.000000 1.000006,191.000000 
	C1.000004,127.666672 1.000004,64.333344 1.000002,1.000015 
	C77.999992,1.000010 154.999985,1.000010 231.999969,1.000005 
	C231.999985,64.333321 231.999985,127.666634 232.000000,190.999969 
	C202.500000,191.000000 173.000000,191.000000 143.000000,191.000000 
M98.262871,33.701447 
	C98.393547,36.403481 98.524223,39.105515 98.830971,42.666359 
	C98.767662,43.827637 98.704361,44.988914 98.202576,46.797417 
	C98.149567,70.175163 98.092171,93.552902 98.067604,116.930679 
	C98.066956,117.547913 98.423576,118.165512 98.734154,119.592979 
	C98.655960,120.129654 98.577774,120.666336 98.262833,121.404495 
	C98.154160,121.626877 98.198784,121.812767 98.379402,122.792397 
	C96.363708,134.200928 91.741508,138.957397 80.174171,139.398056 
	C66.424980,139.921844 58.575310,136.686890 57.673016,120.772446 
	C57.466030,117.121712 57.246719,113.465179 57.237606,109.810799 
	C57.188225,90.005913 57.244221,70.200645 57.142292,50.396141 
	C57.129913,47.990543 56.386108,45.588711 56.000126,42.476528 
	C55.397655,41.492905 54.795185,40.509281 54.118851,38.866707 
	C50.519337,33.640549 45.468472,31.293816 39.205250,31.312004 
	C34.708473,31.325062 30.205328,31.440987 25.716772,31.243698 
	C22.278084,31.092556 21.037554,32.354931 21.051050,35.862343 
	C21.160622,64.342186 20.826540,92.826706 21.220245,121.301605 
	C21.579254,147.267273 35.693985,164.537292 61.364235,168.950211 
	C72.632042,170.887238 84.483818,169.427307 96.162727,170.163635 
	C98.112946,171.024750 100.011200,172.420837 102.026047,172.616531 
	C104.771782,172.883224 107.604050,172.049774 110.403458,172.013245 
	C118.231873,171.911072 126.067276,172.123947 133.888748,171.869263 
	C135.798294,171.807068 138.443726,170.964096 139.411423,169.558182 
	C142.900574,164.488983 145.810196,159.021622 148.953064,153.713165 
	C152.949371,146.963211 156.959641,140.221558 161.268845,132.962631 
	C161.936005,134.414597 162.192291,135.169220 162.600159,135.830322 
	C168.217270,144.935471 174.696579,153.632950 179.210785,163.253296 
	C182.570496,170.413254 186.896759,172.694046 194.164993,172.050980 
	C198.958710,171.626831 203.820129,171.967316 208.651245,171.966721 
	C214.596725,171.965973 220.542191,171.966537 226.143539,171.966537 
	C226.536850,171.121872 226.688538,170.957260 226.665482,170.822571 
	C225.279755,162.727554 220.706360,156.529007 214.693939,150.744415 
	C214.693939,150.744415 214.613373,150.370453 214.696152,149.792740 
	C214.413116,149.560623 214.130096,149.328491 213.382553,148.630096 
	C212.455383,146.884506 211.528214,145.138916 210.666214,142.791458 
	C210.340805,142.606979 210.015396,142.422501 209.249649,141.874527 
	C208.898499,141.425110 208.547348,140.975708 208.124115,140.279160 
	C208.048080,140.123581 207.941315,139.993164 207.402176,139.269653 
	C205.839539,136.603470 204.276901,133.937286 202.885696,130.500198 
	C197.526062,121.149864 192.336227,111.695084 186.692154,102.519714 
	C185.207550,100.106255 185.110992,98.910988 186.666824,96.511810 
	C189.454880,92.212471 191.500824,87.431870 194.274933,82.426270 
	C194.843292,81.615028 195.411652,80.803787 196.611252,79.743492 
	C197.718185,78.520905 199.013458,77.420746 199.900955,76.055511 
	C204.986069,68.233078 210.066605,60.404411 214.952881,52.457462 
	C217.090683,48.980579 218.764191,45.218212 220.839493,41.073250 
	C221.039337,40.769257 221.239182,40.465263 222.017105,39.995865 
	C222.334763,39.315907 222.652420,38.635944 223.123535,37.253483 
	C224.006943,35.814003 224.890335,34.374519 225.890381,32.625301 
	C225.704437,32.379559 225.518494,32.133816 225.204529,31.835560 
	C225.204529,31.835560 225.150391,31.708187 225.048325,30.970098 
	C224.053146,30.353199 223.048294,29.187811 222.064301,29.205172 
	C213.275894,29.360229 204.493103,29.822256 195.704758,29.996887 
	C187.804214,30.153877 181.620270,33.288280 177.662598,40.164391 
	C172.275757,49.523540 167.103073,59.005943 161.482834,69.072617 
	C159.911697,66.513092 158.841080,64.868103 157.868393,63.167126 
	C153.737366,55.943066 149.931442,48.508869 145.386810,41.556690 
	C143.381165,38.488522 139.897858,36.386295 136.868835,33.144802 
	C135.664413,32.453247 134.485626,31.213978 133.251556,31.156250 
	C122.798279,30.667269 112.335892,30.342190 101.872894,30.147266 
	C100.975510,30.130550 100.054031,31.407351 98.953812,32.618534 
	C98.883972,32.794502 98.814133,32.970467 98.262871,33.701447 
z"/>
<path fill="#F51093" opacity="1.000000" stroke="none" 
	d="
M98.499580,121.203011 
	C98.577774,120.666336 98.655960,120.129654 98.851196,118.775909 
	C99.006317,99.158592 99.077431,80.358315 99.060822,61.558109 
	C99.056282,56.422016 98.788193,51.286160 98.641052,46.150192 
	C98.704361,44.988914 98.767662,43.827637 98.908020,41.865475 
	C99.096207,39.952576 99.207336,38.840557 99.623871,37.753777 
	C101.704407,39.910229 103.786453,41.856342 105.202454,44.204151 
	C111.963974,55.415176 118.579132,66.715179 125.171883,78.026924 
	C127.610703,82.211418 129.845734,86.514694 132.117767,91.254578 
	C132.053925,97.842918 132.046021,103.940475 131.902374,110.356155 
	C128.915009,115.072487 125.975632,119.416725 123.229591,123.879921 
	C117.133171,133.788544 111.113571,143.744659 105.103104,153.705826 
	C102.093277,158.694031 99.172150,163.735764 96.132416,168.934357 
	C96.053925,169.115417 96.070442,169.509781 96.070442,169.509796 
	C84.483818,169.427307 72.632042,170.887238 61.364235,168.950211 
	C35.693985,164.537292 21.579254,147.267273 21.220245,121.301605 
	C20.826540,92.826706 21.160622,64.342186 21.051050,35.862343 
	C21.037554,32.354931 22.278084,31.092556 25.716772,31.243698 
	C30.205328,31.440987 34.708473,31.325062 39.205250,31.312004 
	C45.468472,31.293816 50.519337,33.640549 54.097313,39.682125 
	C54.075779,67.632446 54.075779,94.767349 54.075779,121.902260 
	C54.710949,121.900879 55.346115,121.899506 55.981285,121.898132 
	C55.981285,95.660461 55.981285,69.422798 55.981285,43.185131 
	C56.386108,45.588711 57.129913,47.990543 57.142292,50.396141 
	C57.244221,70.200645 57.188225,90.005913 57.237606,109.810799 
	C57.246719,113.465179 57.466030,117.121712 57.673016,120.772446 
	C58.575310,136.686890 66.424980,139.921844 80.174171,139.398056 
	C91.741508,138.957397 96.363708,134.200928 98.529892,122.289871 
	C98.811325,121.533951 98.751060,121.339172 98.499580,121.203011 
z"/>
<path fill="#B6D237" opacity="1.000000" stroke="none" 
	d="
M208.196198,140.526291 
	C208.547348,140.975708 208.898499,141.425110 209.552597,142.297089 
	C210.104034,142.944214 210.352524,143.168777 210.601044,143.393341 
	C211.528214,145.138916 212.455383,146.884506 213.657272,149.119537 
	C214.159119,149.862808 214.386246,150.116638 214.613373,150.370453 
	C214.613373,150.370453 214.693939,150.744415 214.798553,151.271210 
	C218.239044,157.599274 221.574921,163.400528 225.391495,170.037781 
	C213.080505,170.037781 201.651428,169.953812 190.225128,170.094543 
	C187.224731,170.131500 185.324615,169.250641 183.796814,166.560410 
	C179.127090,158.337631 174.248749,150.231949 169.370834,142.129318 
	C166.889206,138.007126 164.234467,133.989136 161.026230,128.927277 
	C154.483002,139.944916 148.011734,149.295746 143.190536,159.431473 
	C139.074646,168.084366 133.573868,171.229126 124.209015,170.179688 
	C115.518456,169.205841 106.676956,169.578979 98.033768,169.038452 
	C99.086624,168.124481 100.007622,167.531082 101.341202,166.969711 
	C107.444664,164.204987 114.010040,162.425034 118.663933,158.422546 
	C133.143585,145.969559 135.882690,128.991302 134.924194,110.646835 
	C135.057770,108.896797 135.025726,107.454330 135.040283,105.600647 
	C135.080170,101.740677 135.073441,98.291916 135.357269,94.756241 
	C135.374207,92.783745 135.100601,90.898163 134.891617,88.547058 
	C135.003113,70.295959 135.049973,52.510395 135.422913,34.760948 
	C136.184860,34.805111 136.620743,34.813160 137.231079,35.110512 
	C145.255386,47.595230 153.105194,59.790642 161.241394,72.430962 
	C162.248718,71.161034 163.032715,70.374870 163.581741,69.449333 
	C169.175858,60.018761 174.761673,50.582985 180.287521,41.112328 
	C183.860779,34.988159 188.978424,31.853350 196.208679,31.923777 
	C205.854294,32.017735 215.503006,31.794935 225.150391,31.708187 
	C225.150391,31.708187 225.204529,31.835560 225.280121,32.165359 
	C225.495071,32.641781 225.634415,32.788410 225.773743,32.935036 
	C224.890335,34.374519 224.006943,35.814003 222.732620,37.665527 
	C222.040817,38.772133 221.739914,39.466698 221.439011,40.161266 
	C221.239182,40.465263 221.039337,40.769257 220.442749,41.473335 
	C214.253448,50.568977 208.369446,59.205597 202.710587,67.987305 
	C200.230225,71.836441 198.209473,75.981735 195.980011,79.992554 
	C195.411652,80.803787 194.843292,81.615028 193.746307,82.733566 
	C191.240753,85.890015 189.514114,88.960007 187.235199,91.542694 
	C182.384735,97.039726 182.745514,102.075508 187.014359,107.865227 
	C192.584000,115.419189 197.510834,123.447121 202.714264,131.271103 
	C204.276901,133.937286 205.839539,136.603470 207.477692,139.747833 
	C207.553223,140.225998 207.783142,140.571228 207.783142,140.571228 
	C207.783142,140.571228 208.196198,140.526291 208.196198,140.526291 
z"/>
<path fill="#E8F1BA" opacity="1.000000" stroke="none" 
	d="
M97.901917,169.359024 
	C106.676956,169.578979 115.518456,169.205841 124.209015,170.179688 
	C133.573868,171.229126 139.074646,168.084366 143.190536,159.431473 
	C148.011734,149.295746 154.483002,139.944916 161.026230,128.927277 
	C164.234467,133.989136 166.889206,138.007126 169.370834,142.129318 
	C174.248749,150.231949 179.127090,158.337631 183.796814,166.560410 
	C185.324615,169.250641 187.224731,170.131500 190.225128,170.094543 
	C201.651428,169.953812 213.080505,170.037781 225.391495,170.037781 
	C221.574921,163.400528 218.239044,157.599274 214.896790,151.435349 
	C220.706360,156.529007 225.279755,162.727554 226.665482,170.822571 
	C226.688538,170.957260 226.536850,171.121872 226.143539,171.966537 
	C220.542191,171.966537 214.596725,171.965973 208.651245,171.966721 
	C203.820129,171.967316 198.958710,171.626831 194.164993,172.050980 
	C186.896759,172.694046 182.570496,170.413254 179.210785,163.253296 
	C174.696579,153.632950 168.217270,144.935471 162.600159,135.830322 
	C162.192291,135.169220 161.936005,134.414597 161.268845,132.962631 
	C156.959641,140.221558 152.949371,146.963211 148.953064,153.713165 
	C145.810196,159.021622 142.900574,164.488983 139.411423,169.558182 
	C138.443726,170.964096 135.798294,171.807068 133.888748,171.869263 
	C126.067276,172.123947 118.231873,171.911072 110.403458,172.013245 
	C107.604050,172.049774 104.771782,172.883224 102.026047,172.616531 
	C100.011200,172.420837 98.112946,171.024750 96.116585,169.836700 
	C96.070442,169.509781 96.053925,169.115417 96.392532,169.081207 
	C97.121391,169.151001 97.511658,169.255020 97.901917,169.359024 
z"/>
<path fill="#E9F4BA" opacity="1.000000" stroke="none" 
	d="
M225.099365,31.339142 
	C215.503006,31.794935 205.854294,32.017735 196.208679,31.923777 
	C188.978424,31.853350 183.860779,34.988159 180.287521,41.112328 
	C174.761673,50.582985 169.175858,60.018761 163.581741,69.449333 
	C163.032715,70.374870 162.248718,71.161034 161.241394,72.430962 
	C153.105194,59.790642 145.255386,47.595230 137.225861,34.866615 
	C137.046143,34.333416 137.085388,33.845535 137.085388,33.845535 
	C139.897858,36.386295 143.381165,38.488522 145.386810,41.556690 
	C149.931442,48.508869 153.737366,55.943066 157.868393,63.167126 
	C158.841080,64.868103 159.911697,66.513092 161.482834,69.072617 
	C167.103073,59.005943 172.275757,49.523540 177.662598,40.164391 
	C181.620270,33.288280 187.804214,30.153877 195.704758,29.996887 
	C204.493103,29.822256 213.275894,29.360229 222.064301,29.205172 
	C223.048294,29.187811 224.053146,30.353199 225.099365,31.339142 
z"/>
<path fill="#F55E56" opacity="1.000000" stroke="none" 
	d="
M134.826981,89.012581 
	C135.100601,90.898163 135.374207,92.783745 135.276184,94.439285 
	C133.994263,93.060768 133.083984,91.912277 132.173706,90.763794 
	C129.845734,86.514694 127.610703,82.211418 125.171883,78.026924 
	C118.579132,66.715179 111.963974,55.415176 105.202454,44.204151 
	C103.786453,41.856342 101.704407,39.910229 99.523621,37.385323 
	C98.993408,35.709896 98.868858,34.428165 98.744293,33.146435 
	C98.814133,32.970467 98.883972,32.794502 99.447601,32.361118 
	C101.547272,32.130871 103.153137,32.158039 104.559097,32.394470 
	C103.570801,32.799461 102.782410,32.995186 101.793793,33.240620 
	C112.836662,51.884975 123.831818,70.448776 134.826981,89.012581 
z"/>
<path fill="#E4F1AD" opacity="1.000000" stroke="none" 
	d="
M202.799973,130.885651 
	C197.510834,123.447121 192.584000,115.419189 187.014359,107.865227 
	C182.745514,102.075508 182.384735,97.039726 187.235199,91.542694 
	C189.514114,88.960007 191.240753,85.890015 193.537292,82.946640 
	C191.500824,87.431870 189.454880,92.212471 186.666824,96.511810 
	C185.110992,98.910988 185.207550,100.106255 186.692154,102.519714 
	C192.336227,111.695084 197.526062,121.149864 202.799973,130.885651 
z"/>
<path fill="#ECF6C1" opacity="1.000000" stroke="none" 
	d="
M196.295624,79.868019 
	C198.209473,75.981735 200.230225,71.836441 202.710587,67.987305 
	C208.369446,59.205597 214.253448,50.568977 220.347260,41.729454 
	C218.764191,45.218212 217.090683,48.980579 214.952881,52.457462 
	C210.066605,60.404411 204.986069,68.233078 199.900955,76.055511 
	C199.013458,77.420746 197.718185,78.520905 196.295624,79.868019 
z"/>
<path fill="#DD158C" opacity="1.000000" stroke="none" 
	d="
M55.990707,42.830830 
	C55.981285,69.422798 55.981285,95.660461 55.981285,121.898132 
	C55.346115,121.899506 54.710949,121.900879 54.075779,121.902260 
	C54.075779,94.767349 54.075779,67.632446 54.134247,40.011604 
	C54.795185,40.509281 55.397655,41.492905 55.990707,42.830830 
z"/>
<path fill="#F8DBAE" opacity="1.000000" stroke="none" 
	d="
M104.759010,32.185207 
	C103.153137,32.158039 101.547272,32.130871 99.542572,32.093483 
	C100.054031,31.407351 100.975510,30.130550 101.872894,30.147266 
	C112.335892,30.342190 122.798279,30.667269 133.251556,31.156250 
	C134.485626,31.213978 135.664413,32.453247 136.977112,33.495171 
	C137.085388,33.845535 137.046143,34.333416 137.051376,34.577312 
	C136.620743,34.813160 136.184860,34.805111 135.215805,34.460304 
	C132.678604,33.443901 130.687805,32.228844 128.668243,32.178986 
	C120.703407,31.982378 112.729530,32.151672 104.759010,32.185207 
z"/>
<path fill="#F8DBAE" opacity="1.000000" stroke="none" 
	d="
M98.421814,46.473804 
	C98.788193,51.286160 99.056282,56.422016 99.060822,61.558109 
	C99.077431,80.358315 99.006317,99.158592 98.790909,118.370895 
	C98.423576,118.165512 98.066956,117.547913 98.067604,116.930679 
	C98.092171,93.552902 98.149567,70.175163 98.421814,46.473804 
z"/>
<path fill="#F8DBAE" opacity="1.000000" stroke="none" 
	d="
M98.503586,33.423943 
	C98.868858,34.428165 98.993408,35.709896 99.218216,37.360085 
	C99.207336,38.840557 99.096207,39.952576 98.819992,41.436069 
	C98.524223,39.105515 98.393547,36.403481 98.503586,33.423943 
z"/>
<path fill="#E9F4BA" opacity="1.000000" stroke="none" 
	d="
M221.728058,40.078568 
	C221.739914,39.466698 222.040817,38.772133 222.655884,38.016777 
	C222.652420,38.635944 222.334763,39.315907 221.728058,40.078568 
z"/>
<path fill="#E9F4BA" opacity="1.000000" stroke="none" 
	d="
M225.832062,32.780167 
	C225.634415,32.788410 225.495071,32.641781 225.344147,32.191616 
	C225.518494,32.133816 225.704437,32.379559 225.832062,32.780167 
z"/>
<path fill="#F8DBAE" opacity="1.000000" stroke="none" 
	d="
M98.381210,121.303757 
	C98.751060,121.339172 98.811325,121.533951 98.538544,121.874756 
	C98.198784,121.812767 98.154160,121.626877 98.381210,121.303757 
z"/>
<path fill="#E4F1AD" opacity="1.000000" stroke="none" 
	d="
M208.160156,140.402725 
	C208.196198,140.526291 207.783142,140.571228 207.783142,140.571228 
	C207.783142,140.571228 207.553223,140.225998 207.678513,140.056961 
	C207.941315,139.993164 208.048080,140.123581 208.160156,140.402725 
z"/>
<path fill="#E8F1BA" opacity="1.000000" stroke="none" 
	d="
M210.633621,143.092407 
	C210.352524,143.168777 210.104034,142.944214 209.772766,142.478821 
	C210.015396,142.422501 210.340805,142.606979 210.633621,143.092407 
z"/>
<path fill="#E8F1BA" opacity="1.000000" stroke="none" 
	d="
M214.654755,150.081604 
	C214.386246,150.116638 214.159119,149.862808 213.889526,149.352692 
	C214.130096,149.328491 214.413116,149.560623 214.654755,150.081604 
z"/>
<path fill="#F9704C" opacity="1.000000" stroke="none" 
	d="
M98.033768,169.038452 
	C97.511658,169.255020 97.121391,169.151001 96.471016,168.900146 
	C99.172150,163.735764 102.093277,158.694031 105.103104,153.705826 
	C111.113571,143.744659 117.133171,133.788544 123.229591,123.879921 
	C125.975632,119.416725 128.915009,115.072487 132.158051,110.166245 
	C133.364166,108.442749 134.178925,107.227303 134.993668,106.011856 
	C135.025726,107.454330 135.057770,108.896797 134.681519,110.876892 
	C133.236023,112.673584 132.007095,113.820396 131.193314,115.210281 
	C126.583008,123.084320 122.121216,131.045273 117.514648,138.921555 
	C112.035728,148.289368 106.461525,157.601440 100.928619,166.937683 
	C100.007622,167.531082 99.086624,168.124481 98.033768,169.038452 
z"/>
<path fill="#D62482" opacity="1.000000" stroke="none" 
	d="
M135.040283,105.600647 
	C134.178925,107.227303 133.364166,108.442749 132.293762,109.848114 
	C132.046021,103.940475 132.053925,97.842918 132.117767,91.254578 
	C133.083984,91.912277 133.994263,93.060768 134.985626,94.526207 
	C135.073441,98.291916 135.080170,101.740677 135.040283,105.600647 
z"/>
<path fill="#F39720" opacity="1.000000" stroke="none" 
	d="
M104.559097,32.394470 
	C112.729530,32.151672 120.703407,31.982378 128.668243,32.178986 
	C130.687805,32.228844 132.678604,33.443901 134.889725,34.424191 
	C135.049973,52.510395 135.003113,70.295959 134.891617,88.547058 
	C123.831818,70.448776 112.836662,51.884975 101.793793,33.240620 
	C102.782410,32.995186 103.570801,32.799461 104.559097,32.394470 
z"/>
<path fill="#F29820" opacity="1.000000" stroke="none" 
	d="
M101.341194,166.969711 
	C106.461525,157.601440 112.035728,148.289368 117.514648,138.921555 
	C122.121216,131.045273 126.583008,123.084320 131.193314,115.210281 
	C132.007095,113.820396 133.236023,112.673584 134.515900,111.184448 
	C135.882690,128.991302 133.143585,145.969559 118.663933,158.422546 
	C114.010040,162.425034 107.444664,164.204987 101.341194,166.969711 
z"/>
</svg>