<?xml version="1.0" ?><svg viewBox="0 0 64 64" xmlns="http://www.w3.org/2000/svg"><defs><style>.a{fill:#e5e4e4;stroke:#818180;}.a,.c,.d,.e{stroke-linecap:round;stroke-linejoin:round;stroke-width:2px;}.b{fill:#1c1c1c;}.c{fill:none;}.c,.d,.e{stroke:#1c1c1c;}.d{fill:#fff;}.e{fill:#818180;}</style></defs><title/><path class="a" d="M28,6A20,20,0,1,1,6,38.35,26.29,26.29,0,1,0,28,6Z"/><circle class="b" cx="41.5" cy="43.5" r="2.5"/><polyline class="c" points="25 31 29 31 25 35 29 35"/><polyline class="c" points="30 38 34 38 30 42 34 42"/><circle class="d" cx="42" cy="30" r="4"/><circle class="b" cx="42" cy="30" r="2"/><path class="e" d="M42,30a5.47,5.47,0,0,0-3.72,1.45,4,4,0,0,0,7.43,0A5.47,5.47,0,0,0,42,30Z"/><circle class="d" cx="54" cy="30" r="4"/><circle class="b" cx="54" cy="30" r="2"/><path class="e" d="M54,30a5.47,5.47,0,0,0-3.72,1.45,4,4,0,0,0,7.43,0A5.47,5.47,0,0,0,54,30Z"/></svg>